<?xml version="1.0" standalone="no"?>
<!DOCTYPE svg PUBLIC "-//W3C//DTD SVG 20010904//EN"
 "http://www.w3.org/TR/2001/REC-SVG-20010904/DTD/svg10.dtd">
<svg version="1.0" xmlns="http://www.w3.org/2000/svg"
 width="170.000000pt" height="170.000000pt" viewBox="0 0 170.000000 170.000000"
 preserveAspectRatio="xMidYMid meet">
<metadata>
Created by potrace 1.11, written by Peter Selinger 2001-2013
</metadata>
<g transform="translate(0.000000,170.000000) scale(0.100000,-0.100000)"
fill="#000000" stroke="none">
<path d="M1026 1612 c2 -152 17 -261 50 -369 11 -36 13 -60 7 -79 -8 -24 -11
-17 -27 57 -17 84 -99 339 -136 425 -18 40 -23 45 -47 42 -36 -4 -39 -33 -18
-175 23 -158 87 -337 147 -414 15 -20 28 -43 28 -50 -1 -23 -39 -87 -40 -66
-1 54 -82 251 -207 505 -55 111 -80 151 -90 147 -8 -3 -19 -5 -25 -5 -12 0 -3
-122 17 -225 35 -187 143 -416 234 -498 l40 -36 -21 -65 -22 -65 -18 57 c-11
31 -25 71 -32 87 -8 17 -26 59 -42 95 -16 36 -46 99 -67 140 -36 67 -56 106
-120 220 -10 19 -42 73 -70 118 -45 74 -52 82 -63 67 -15 -20 -12 -127 6 -223
25 -141 109 -346 196 -478 44 -68 147 -174 169 -174 11 0 12 -5 5 -22 -5 -13
-19 -58 -31 -100 l-23 -78 -21 63 c-12 34 -28 78 -35 97 -19 49 -159 323 -201
395 -183 305 -214 351 -224 335 -10 -17 -8 -150 5 -220 23 -134 84 -309 148
-429 77 -144 197 -292 265 -328 l34 -18 -22 -85 -21 -84 -14 34 c-53 134 -230
433 -359 606 -9 12 -23 32 -31 44 -8 12 -45 62 -82 112 l-67 90 -12 -44 c-20
-74 -16 -185 10 -258 66 -184 195 -395 323 -528 66 -69 164 -142 190 -142 16
0 18 -5 13 -34 -6 -31 -4 -34 25 -45 38 -13 50 -8 50 21 0 15 4 18 18 12 9 -4
55 -9 102 -11 118 -6 237 21 380 85 61 27 164 110 197 160 38 56 52 102 32
102 -40 0 -366 -92 -464 -130 -95 -37 -184 -78 -213 -98 l-35 -23 7 23 c3 13
13 57 22 98 l16 75 127 1 c100 1 139 6 190 23 151 50 271 132 311 212 26 49
26 82 3 75 -10 -3 -31 -8 -48 -11 -105 -23 -384 -117 -472 -160 -46 -23 -83
-39 -83 -37 0 4 19 81 41 164 l9 36 38 -10 c53 -15 191 -1 282 28 80 25 176
81 222 130 30 33 62 100 50 108 -22 13 -406 -99 -512 -150 -25 -12 -47 -20
-49 -18 -3 2 6 37 19 78 l23 74 30 -10 c42 -15 160 -4 242 23 121 40 227 129
250 208 7 23 6 24 -32 18 -66 -11 -310 -94 -385 -132 -39 -19 -73 -34 -74 -32
-2 2 5 25 16 53 11 30 24 47 32 45 7 -2 41 -3 75 -3 76 2 175 40 242 92 48 38
98 117 83 132 -11 11 -192 -52 -290 -100 -42 -20 -81 -39 -85 -41 -5 -2 0 14
11 35 17 33 25 39 56 42 89 6 224 111 275 214 29 57 39 98 25 98 -31 0 -311
-199 -332 -236 -7 -13 -11 -2 -16 42 -4 33 -21 132 -38 222 -29 148 -34 162
-53 162 -19 0 -21 -5 -19 -88z"/>
</g>
</svg>
