<?xml version="1.0" encoding="UTF-8"?><!DOCTYPE svg PUBLIC "-//W3C//DTD SVG 1.1//EN" "http://www.w3.org/Graphics/SVG/1.1/DTD/svg11.dtd"><svg xmlns="http://www.w3.org/2000/svg"><symbol id="safari-pinned-tab" viewBox="0 0 170.000000 170.000000"><path d="M102.6 8.8c.2 15.2 1.7 26.1 5 36.9 1.1 3.6 1.3 6 .7 7.9-.8 2.4-1.1 1.7-2.7-5.7C103.9 39.5 95.7 14 92 5.4c-1.8-4-2.3-4.5-4.7-4.2-3.6.4-3.9 3.3-1.8 17.5 2.3 15.8 8.7 33.7 14.7 41.4 1.5 2 2.8 4.3 2.8 5-.1 2.3-3.9 8.7-4 6.6-.1-5.4-8.2-25.1-20.7-50.5-5.5-11.1-8-15.1-9-14.7-.8.3-1.9.5-2.5.5-1.2 0-.3 12.2 1.7 22.5C72 48.2 82.8 71.1 91.9 79.3l4 3.6-2.1 6.5-2.2 6.5-1.8-5.7c-1.1-3.1-2.5-7.1-3.2-8.7-.8-1.7-2.6-5.9-4.2-9.5-1.6-3.6-4.6-9.9-6.7-14-3.6-6.7-5.6-10.6-12-22-1-1.9-4.2-7.3-7-11.8-4.5-7.4-5.2-8.2-6.3-6.7-1.5 2-1.2 12.7.6 22.3 2.5 14.1 10.9 34.6 19.6 47.8C75 94.4 85.3 105 87.5 105c1.1 0 1.2.5.5 2.2-.5 1.3-1.9 5.8-3.1 10l-2.3 7.8-2.1-6.3c-1.2-3.4-2.8-7.8-3.5-9.7-1.9-4.9-15.9-32.3-20.1-39.5C38.6 39 35.5 34.4 34.5 36c-1 1.7-.8 15 .5 22 2.3 13.4 8.4 30.9 14.8 42.9 7.7 14.4 19.7 29.2 26.5 32.8l3.4 1.8-2.2 8.5-2.1 8.4L74 149c-5.3-13.4-23-43.3-35.9-60.6-.9-1.2-2.3-3.2-3.1-4.4-.8-1.2-4.5-6.2-8.2-11.2l-6.7-9-1.2 4.4c-2 7.4-1.6 18.5 1 25.8 6.6 18.4 19.5 39.5 32.3 52.8 6.6 6.9 16.4 14.2 19 14.2 1.6 0 1.8.5 1.3 3.4-.6 3.1-.4 3.4 2.5 4.5 3.8 1.3 5 .8 5-2.1 0-1.5.4-1.8 1.8-1.2.9.4 5.5.9 10.2 1.1 11.8.6 23.7-2.1 38-8.5 6.1-2.7 16.4-11 19.7-16 3.8-5.6 5.2-10.2 3.2-10.2-4 0-36.6 9.2-46.4 13-9.5 3.7-18.4 7.8-21.3 9.8l-3.5 2.3.7-2.3c.3-1.3 1.3-5.7 2.2-9.8l1.6-7.5 12.7-.1c10-.1 13.9-.6 19-2.3 15.1-5 27.1-13.2 31.1-21.2 2.6-4.9 2.6-8.2.3-7.5-1 .3-3.1.8-4.8 1.1-10.5 2.3-38.4 11.7-47.2 16-4.6 2.3-8.3 3.9-8.3 3.7 0-.4 1.9-8.1 4.1-16.4l.9-3.6 3.8 1c5.3 1.5 19.1.1 28.2-2.8 8-2.5 17.6-8.1 22.2-13 3-3.3 6.2-10 5-10.8-2.2-1.3-40.6 9.9-51.2 15-2.5 1.2-4.7 2-4.9 1.8-.3-.2.6-3.7 1.9-7.8l2.3-7.4 3 1c4.2 1.5 16 .4 24.2-2.3 12.1-4 22.7-12.9 25-20.8.7-2.3.6-2.4-3.2-1.8-6.6 1.1-31 9.4-38.5 13.2-3.9 1.9-7.3 3.4-7.4 3.2-.2-.2.5-2.5 1.6-5.3 1.1-3 2.4-4.7 3.2-4.5.7.2 4.1.3 7.5.3 7.6-.2 17.5-4 24.2-9.2 4.8-3.8 9.8-11.7 8.3-13.2-1.1-1.1-19.2 5.2-29 10-4.2 2-8.1 3.9-8.5 4.1-.5.2 0-1.4 1.1-3.5 1.7-3.3 2.5-3.9 5.6-4.2 8.9-.6 22.4-11.1 27.5-21.4 2.9-5.7 3.9-9.8 2.5-9.8-3.1 0-31.1 19.9-33.2 23.6-.7 1.3-1.1.2-1.6-4.2-.4-3.3-2.1-13.2-3.8-22.2C106.9 1.4 106.4 0 104.5 0s-2.1.5-1.9 8.8z"/></symbol></svg>